<svg xmlns="http://www.w3.org/2000/svg" width="378.37" height="235.26" viewBox="0 0 378.37 235.26"><g transform="translate(12.000,12.000)"><g transform="translate(121.741,-19.151) scale(1.39279)"><path d="M61,29 A23,23 0 1 0 61,53 C61,68 62,82 56,89 C51,95 38,95 30,90" fill="none" stroke="#11161D" stroke-width="8.5" stroke-linecap="round" stroke-linejoin="round"/><circle cx="61.00" cy="29.00" r="6.9" fill="#4F46E5" stroke="#FFFFFF" stroke-width="2.3"/><circle cx="18.57" cy="43.97" r="6.9" fill="#1E88E5" stroke="#FFFFFF" stroke-width="2.3"/><circle cx="61.04" cy="60.15" r="6.9" fill="#06B6D4" stroke="#FFFFFF" stroke-width="2.3"/><circle cx="30.00" cy="90.00" r="6.9" fill="#10B981" stroke="#FFFFFF" stroke-width="2.3"/></g><path d="M52.299560546875 244.2501220703125V258.8502197265625Q52.299560546875 336.500244140625 83.47454833984375 391.82525634765625Q114.6495361328125 447.1502685546875 166.67449951171875 476.82525634765625Q218.699462890625 506.500244140625 281.099365234375 506.500244140625Q353.299072265625 506.500244140625 391.62384033203125 479.87542724609375Q429.9486083984375 453.2506103515625 447.698486328125 422.3509521484375H463.5986328125V492.500244140625H563.80029296875V-100.59912109375Q563.80029296875 -146.3494873046875 537.6500244140625 -173.17474365234375Q511.499755859375 -200 465.3494873046875 -200H133.3494873046875V-109.5986328125H432.5487060546875Q461.5986328125 -109.5986328125 461.5986328125 -79.5986328125V77.3994140625H445.698486328125Q434.6485595703125 58.599609375 414.72369384765625 39.82476806640625Q394.798828125 21.0499267578125 362.3489990234375 8.82501220703125Q329.899169921875 -3.39990234375 281.099365234375 -3.39990234375Q218.699462890625 -3.39990234375 166.49951171875 26.27508544921875Q114.299560546875 55.9500732421875 83.299560546875 111.4500732421875Q52.299560546875 166.9500732421875 52.299560546875 244.2501220703125ZM309.39990234375 87.00146484375Q376.1492919921875 87.00146484375 419.52398681640625 129.2510986328125Q462.898681640625 171.500732421875 462.898681640625 246.900146484375V256.2001953125Q462.898681640625 332.599609375 419.8489990234375 374.3492431640625Q376.79931640625 416.098876953125 309.39990234375 416.098876953125Q243.00048828125 416.098876953125 199.4508056640625 374.3492431640625Q155.901123046875 332.599609375 155.901123046875 256.2001953125V246.900146484375Q155.901123046875 171.500732421875 199.4508056640625 129.2510986328125Q243.00048828125 87.00146484375 309.39990234375 87.00146484375Z" transform="translate(-4.393,194.460) scale(0.084000,-0.084000)" fill="#11161D"/><path d="M76.299560546875 0V492.500244140625H177.201171875V434.7503662109375H193.101318359375Q205.1512451171875 465.80029296875 231.3511962890625 480.1502685546875Q257.5511474609375 494.500244140625 296.80078125 494.500244140625H355.7508544921875V402.098876953125H293.0509033203125Q242.60107421875 402.098876953125 210.901123046875 374.67401123046875Q179.201171875 347.2491455078125 179.201171875 289.699462890625V0Z" transform="translate(49.703,194.460) scale(0.084000,-0.084000)" fill="#11161D"/><path d="M228.5496826171875 -14Q176.2496337890625 -14 134.42462158203125 4.1500244140625Q92.599609375 22.300048828125 68.27459716796875 57.27508544921875Q43.9495849609375 92.2501220703125 43.9495849609375 142.2001953125Q43.9495849609375 192.500244140625 68.27459716796875 226.12530517578125Q92.599609375 259.7503662109375 135.22467041015625 276.72540283203125Q177.8497314453125 293.700439453125 231.7498779296875 293.700439453125H382.4488525390625V325.5501708984375Q382.4488525390625 368.9495849609375 356.2491455078125 395.12432861328125Q330.0494384765625 421.299072265625 276.099853515625 421.299072265625Q223.1502685546875 421.299072265625 195.07562255859375 396.29931640625Q167.0009765625 371.299560546875 157.901123046875 330.6500244140625L62.19970703125 361.9505615234375Q74.19970703125 401.700439453125 100.52471923828125 434.2503662109375Q126.8497314453125 466.80029296875 170.82476806640625 486.6502685546875Q214.7998046875 506.500244140625 277.39990234375 506.500244140625Q373.300048828125 506.500244140625 428.02520751953125 457.8502197265625Q482.7503662109375 409.2001953125 482.7503662109375 318.6500244140625V115.80126953125Q482.7503662109375 85.80126953125 510.7503662109375 85.80126953125H553.2001953125V0H476.19970703125Q441.299560546875 0 419.3994140625 18.17498779296875Q397.499267578125 36.3499755859375 397.499267578125 67.0499267578125V70.1497802734375H381.6490478515625Q374.499267578125 54.6500244140625 358.22442626953125 34.62506103515625Q341.9495849609375 14.60009765625 310.899658203125 0.300048828125Q279.8497314453125 -14 228.5496826171875 -14ZM244.2501220703125 71.201171875Q305.6495361328125 71.201171875 344.0491943359375 106.6507568359375Q382.4488525390625 142.100341796875 382.4488525390625 203.699462890625V214.3994140625H237.9500732421875Q197.00048828125 214.3994140625 171.92584228515625 196.77459716796875Q146.8511962890625 179.1497802734375 146.8511962890625 145.1502685546875Q146.8511962890625 111.1507568359375 172.92584228515625 91.17596435546875Q199.00048828125 71.201171875 244.2501220703125 71.201171875Z" transform="translate(82.547,194.460) scale(0.084000,-0.084000)" fill="#11161D"/><path d="M76.299560546875 -200V492.500244140625H177.201171875V422.3509521484375H193.101318359375Q211.501220703125 455.20068359375 250.47601318359375 480.8504638671875Q289.4508056640625 506.500244140625 361.00048828125 506.500244140625Q422.7503662109375 506.500244140625 474.4503173828125 476.6502685546875Q526.1502685546875 446.80029296875 557.3252563476562 390.1502685546875Q588.500244140625 333.500244140625 588.500244140625 253.5501708984375V238.9500732421875Q588.500244140625 159.3499755859375 557.500244140625 102.52496337890625Q526.500244140625 45.699951171875 474.80029296875 15.8499755859375Q423.100341796875 -14 361.00048828125 -14Q313.20068359375 -14 280.2508544921875 -2.10009765625Q247.301025390625 9.7998046875 227.0511474609375 28.57464599609375Q206.80126953125 47.3494873046875 195.101318359375 66.79931640625H179.201171875V-200ZM331.39990234375 76.4013671875Q398.79931640625 76.4013671875 441.8489990234375 119.32598876953125Q484.898681640625 162.2506103515625 484.898681640625 241.60009765625V250.900146484375Q484.898681640625 330.2496337890625 441.52398681640625 373.17425537109375Q398.1492919921875 416.098876953125 331.39990234375 416.098876953125Q265.00048828125 416.098876953125 221.4508056640625 373.17425537109375Q177.901123046875 330.2496337890625 177.901123046875 250.900146484375V241.60009765625Q177.901123046875 162.2506103515625 221.4508056640625 119.32598876953125Q265.00048828125 76.4013671875 331.39990234375 76.4013671875Z" transform="translate(131.351,194.460) scale(0.084000,-0.084000)" fill="#11161D"/><path d="M76.299560546875 0V700H179.201171875V423.100830078125H195.101318359375Q204.501220703125 441.900634765625 223.07611083984375 459.82550048828125Q241.6510009765625 477.7503662109375 272.2508544921875 489.30029296875Q302.8507080078125 500.8502197265625 349.6505126953125 500.8502197265625Q405.900634765625 500.8502197265625 449.57562255859375 475.92510986328125Q493.2506103515625 451 518.1255493164062 405.37493896484375Q543.00048828125 359.7498779296875 543.00048828125 296V0H440.098876953125V288.099853515625Q440.098876953125 352.499267578125 408.22418212890625 382.77410888671875Q376.3494873046875 413.0489501953125 319.7498779296875 413.0489501953125Q255.80029296875 413.0489501953125 217.500732421875 370.87420654296875Q179.201171875 328.699462890625 179.201171875 248.8502197265625V0Z" transform="translate(185.531,194.460) scale(0.084000,-0.084000)" fill="#11161D"/><path d="M301.599609375 -14Q227.2496337890625 -14 171.099609375 17.5Q114.9495849609375 49 83.62457275390625 106.32501220703125Q52.299560546875 163.6500244140625 52.299560546875 240.2501220703125V252.2501220703125Q52.299560546875 329.2001953125 83.299560546875 386.3502197265625Q114.299560546875 443.500244140625 169.77459716796875 475.000244140625Q225.2496337890625 506.500244140625 297.8497314453125 506.500244140625Q369.099853515625 506.500244140625 422.57489013671875 475.400146484375Q476.0499267578125 444.300048828125 506.0499267578125 388.199951171875Q536.0499267578125 332.099853515625 536.0499267578125 256.7998046875V217.6495361328125H156.501220703125Q158.8511962890625 152.6505126953125 200.62579345703125 114.52593994140625Q242.400390625 76.4013671875 304.19970703125 76.4013671875Q362.4493408203125 76.4013671875 391.82403564453125 102.201171875Q421.19873046875 128.0009765625 436.6485595703125 161.9505615234375L522.499755859375 118.4498291015625Q508.1497802734375 90 481.6497802734375 59.1500244140625Q455.1497802734375 28.300048828125 411.8497314453125 7.1500244140625Q368.5496826171875 -14 301.599609375 -14ZM157.501220703125 296.9505615234375H431.498291015625Q427.498291015625 352.5496826171875 391.22369384765625 384.32427978515625Q354.9490966796875 416.098876953125 297.19970703125 416.098876953125Q238.500244140625 416.098876953125 202.20068359375 384.32427978515625Q165.901123046875 352.5496826171875 157.501220703125 296.9505615234375Z" transform="translate(237.527,194.460) scale(0.084000,-0.084000)" fill="#11161D"/><path d="M76.299560546875 0V492.500244140625H179.201171875V0ZM127.7503662109375 559.599609375Q97.9500732421875 559.599609375 77.42486572265625 579.1497802734375Q56.899658203125 598.699951171875 56.899658203125 629.80029296875Q56.899658203125 661.2506103515625 77.42486572265625 680.6257934570312Q97.9500732421875 700.0009765625 127.7503662109375 700.0009765625Q158.5506591796875 700.0009765625 178.57586669921875 680.6257934570312Q198.60107421875 661.2506103515625 198.60107421875 629.80029296875Q198.60107421875 598.699951171875 178.57586669921875 579.1497802734375Q158.5506591796875 559.599609375 127.7503662109375 559.599609375Z" transform="translate(286.919,194.460) scale(0.084000,-0.084000)" fill="#11161D"/><path d="M76.299560546875 0V492.500244140625H177.201171875V418.7508544921875H193.101318359375Q207.201171875 449.300537109375 243.0009765625 475.2503662109375Q278.80078125 501.2001953125 349.6505126953125 501.2001953125Q405.900634765625 501.2001953125 449.57562255859375 476.27508544921875Q493.2506103515625 451.3499755859375 518.1255493164062 405.5499267578125Q543.00048828125 359.7498779296875 543.00048828125 296V0H440.098876953125V288.099853515625Q440.098876953125 352.499267578125 408.22418212890625 382.9490966796875Q376.3494873046875 413.39892578125 319.7498779296875 413.39892578125Q255.80029296875 413.39892578125 217.500732421875 371.0491943359375Q179.201171875 328.699462890625 179.201171875 248.8502197265625V0Z" transform="translate(308.759,194.460) scale(0.084000,-0.084000)" fill="#11161D"/></g></svg>