<svg xmlns="http://www.w3.org/2000/svg" width="113.69" height="113.69" viewBox="0 0 113.69 113.69"><g transform="translate(17.039,1.030)"><path d="M62.01,28.32 L60.93,26.48 L59.63,24.71 L58.13,23.09 L56.47,21.63 L54.66,20.37 L52.73,19.31 L50.69,18.48 L48.59,17.87 L46.44,17.50 L44.28,17.35 L42.14,17.43 L40.03,17.73 L37.99,18.23 L36.03,18.91 L34.16,19.75 L32.39,20.74 L30.74,21.87 L29.20,23.10 L27.77,24.43 L26.46,25.84 L25.26,27.33 L24.16,28.88 L23.18,30.49 L22.29,32.16 L21.51,33.89 L20.84,35.68 L20.28,37.52 L19.85,39.41 L19.55,41.36 L19.39,43.35 L19.40,45.37 L19.58,47.41 L19.95,49.46 L20.52,51.50 L21.28,53.49 L22.26,55.42 L23.44,57.25 L24.82,58.97 L26.38,60.53 L28.12,61.92 L30.01,63.12 L32.02,64.09 L34.14,64.84 L36.32,65.34 L38.54,65.60 L40.76,65.62 L42.96,65.39 L45.12,64.94 L47.19,64.27 L49.18,63.41 L51.05,62.37 L52.79,61.18 L54.40,59.85 L55.87,58.40 L57.21,56.85 L58.40,55.23 L59.59,53.37 L62.11,53.56 L62.29,56.40 L62.39,58.87 L62.45,61.31 L62.45,63.71 L62.40,66.08 L62.29,68.39 L62.11,70.65 L61.86,72.84 L61.54,74.96 L61.14,76.99 L60.66,78.93 L60.11,80.77 L59.47,82.49 L58.76,84.09 L57.96,85.56 L57.09,86.90 L56.14,88.10 L55.05,89.23 L53.72,90.26 L52.21,91.13 L50.52,91.85 L48.69,92.41 L46.72,92.82 L44.66,93.08 L42.52,93.18 L40.34,93.11 L38.15,92.87 L35.97,92.46 L33.85,91.88 L31.82,91.11 L29.91,90.16" fill="none" stroke="#11161D" stroke-width="5.0" stroke-linecap="round" stroke-linejoin="round" opacity="0.95"/><path d="M61.16,28.89 L60.00,27.17 L58.68,25.56 L57.20,24.09 L55.58,22.77 L53.85,21.63 L52.01,20.68 L50.10,19.91 L48.13,19.34 L46.13,18.96 L44.11,18.77 L42.10,18.76 L40.10,18.93 L38.15,19.26 L36.23,19.75 L34.37,20.37 L32.56,21.13 L30.82,22.02 L29.15,23.03 L27.55,24.15 L26.02,25.39 L24.58,26.75 L23.23,28.22 L21.98,29.80 L20.85,31.50 L19.86,33.30 L19.02,35.21 L18.34,37.20 L17.86,39.26 L17.57,41.39 L17.50,43.55 L17.65,45.72 L18.03,47.87 L18.64,49.98 L19.48,52.02 L20.54,53.95 L21.80,55.76 L23.25,57.42 L24.86,58.91 L26.62,60.22 L28.49,61.34 L30.45,62.26 L32.48,62.97 L34.55,63.49 L36.64,63.81 L38.73,63.95 L40.80,63.90 L42.85,63.69 L44.86,63.31 L46.82,62.78 L48.72,62.11 L50.55,61.29 L52.31,60.33 L53.99,59.24 L55.57,58.03 L57.04,56.69 L58.41,55.23 L59.75,53.54 L61.71,53.69 L61.72,56.40 L61.70,58.87 L61.69,61.31 L61.68,63.71 L61.66,66.07 L61.61,68.38 L61.55,70.63 L61.44,72.82 L61.28,74.94 L61.06,76.99 L60.77,78.95 L60.39,80.83 L59.91,82.62 L59.31,84.30 L58.59,85.86 L57.73,87.28 L56.74,88.55 L55.54,89.73 L54.07,90.75 L52.41,91.53 L50.60,92.07 L48.68,92.40 L46.68,92.53 L44.63,92.47 L42.55,92.24 L40.48,91.86 L38.45,91.34 L36.48,90.70 L34.59,89.95 L32.81,89.10 L31.05,88.10" fill="none" stroke="#11161D" stroke-width="3.0" stroke-linecap="round" stroke-linejoin="round" opacity="0.55"/><path d="M61.51,35.64 L59.27,35.19 L57.08,34.48 L55.42,32.82 L55.16,30.50 L55.07,28.42 L54.65,25.95 L56.61,24.51 L58.42,23.31 L60.45,21.77 L62.77,22.68 L65.10,23.27 L66.42,25.29 L67.57,27.31 L67.11,29.60 L67.11,31.93 L65.96,34.06 L63.74,35.04 L61.53,35.90 Z" fill="#4F46E5" stroke="none"/><path d="M61.62,37.14 L59.31,36.39 L56.86,36.13 L55.05,34.48 L53.94,32.35 L53.53,30.07 L52.75,27.68 L53.86,25.46 L55.06,23.34 L56.93,21.69 L59.31,20.97 L61.79,20.63 L64.04,21.71 L66.31,22.64 L67.67,24.69 L69.11,26.73 L69.36,29.24 L68.20,31.46 L67.18,33.51 L65.61,35.20 L63.80,36.97 L61.30,36.93 L58.88,36.84 L56.82,35.60 L54.90,34.19" fill="none" stroke="#11161D" stroke-width="1.5" stroke-linecap="round" opacity="0.9"/><path d="M19.63,51.11 L17.35,49.96 L14.97,49.83 L13.83,47.74 L12.63,45.96 L11.32,43.78 L12.79,41.69 L13.49,39.47 L15.45,38.22 L17.61,37.51 L19.89,37.51 L21.81,38.70 L24.08,39.60 L24.32,42.06 L24.82,44.14 L24.12,46.17 L23.28,48.15 L21.66,49.67 L19.62,51.03 Z" fill="#1E88E5" stroke="none"/><path d="M19.73,51.77 L17.40,51.51 L15.16,50.95 L12.76,50.14 L11.97,47.70 L10.64,45.69 L10.72,43.28 L11.03,40.88 L12.52,38.98 L14.09,37.12 L16.38,36.28 L18.76,35.83 L21.24,36.03 L23.30,37.42 L24.69,39.37 L25.71,41.42 L26.99,43.62 L26.30,46.02 L25.10,48.06 L24.07,50.36 L21.78,51.38 L19.46,52.15 L16.97,52.18 L14.88,50.84 L12.96,49.48" fill="none" stroke="#11161D" stroke-width="1.5" stroke-linecap="round" opacity="0.9"/><path d="M60.66,66.99 L58.35,66.44 L56.21,65.30 L55.52,62.94 L54.84,60.89 L55.07,58.75 L55.82,56.74 L56.91,54.62 L59.28,54.30 L61.41,53.52 L63.49,54.43 L65.38,55.54 L66.85,57.22 L68.04,59.32 L67.61,61.69 L66.03,63.41 L64.82,65.20 L62.82,66.02 L60.65,67.23 Z" fill="#06B6D4" stroke="none"/><path d="M60.58,68.44 L58.15,67.92 L55.96,66.73 L54.30,64.88 L53.02,62.73 L52.76,60.23 L53.61,57.92 L54.13,55.50 L56.04,53.93 L58.01,52.48 L60.44,52.11 L62.82,52.42 L65.00,53.35 L66.89,54.79 L68.11,56.81 L68.60,59.08 L69.24,61.48 L68.46,63.84 L67.17,66.00 L65.02,67.30 L62.69,68.03 L60.26,68.35 L58.09,67.21 L55.80,66.42 L54.37,64.46" fill="none" stroke="#11161D" stroke-width="1.5" stroke-linecap="round" opacity="0.9"/><path d="M32.86,96.19 L30.53,96.36 L28.37,95.98 L26.20,95.38 L24.59,93.76 L23.64,91.68 L23.48,89.40 L24.31,87.32 L25.58,85.55 L27.13,83.78 L29.47,83.65 L31.79,83.41 L34.02,84.30 L35.82,85.96 L36.95,88.17 L36.22,90.57 L35.66,92.66 L34.87,94.90 L32.81,96.08 Z" fill="#10B981" stroke="none"/><path d="M33.23,97.00 L31.07,98.10 L28.59,98.24 L26.23,97.42 L24.61,95.54 L23.14,93.73 L22.62,91.47 L21.59,89.12 L22.89,86.95 L23.75,84.67 L25.71,83.21 L27.90,82.19 L30.31,81.98 L32.77,82.16 L34.84,83.51 L36.32,85.40 L37.22,87.54 L37.98,89.79 L38.09,92.28 L36.43,94.17 L35.23,96.28 L33.11,97.51 L30.71,97.64 L28.40,97.55 L26.01,97.14" fill="none" stroke="#11161D" stroke-width="1.5" stroke-linecap="round" opacity="0.9"/></g></svg>